<?xml version="1.0" encoding="UTF-8"?>
<!DOCTYPE svg PUBLIC "-//W3C//DTD SVG 1.1//EN" "http://www.w3.org/Graphics/SVG/1.1/DTD/svg11.dtd">
<svg xmlns="http://www.w3.org/2000/svg" version="1.1" width="192px" height="192px" style="shape-rendering:geometricPrecision; text-rendering:geometricPrecision; image-rendering:optimizeQuality; fill-rule:evenodd; clip-rule:evenodd" xmlns:xlink="http://www.w3.org/1999/xlink">
<g><path style="opacity:0.972" fill="#0066f4" d="M 30.5,27.5 C 73.8346,27.3333 117.168,27.5 160.5,28C 164.667,29.5 167.5,32.3333 169,36.5C 169.667,57.8333 169.667,79.1667 169,100.5C 163.5,133.653 146,158.153 116.5,174C 108.765,178.805 100.432,181.138 91.5,181C 69.4695,173.91 51.6361,161.077 38,142.5C 29.3254,129.81 23.9921,115.81 22,100.5C 21.3333,79.1667 21.3333,57.8333 22,36.5C 23.6878,32.3148 26.5212,29.3148 30.5,27.5 Z M 37.5,43.5 C 75.8333,43.5 114.167,43.5 152.5,43.5C 152.667,60.8365 152.5,78.1699 152,95.5C 147.055,129.732 128.222,152.398 95.5,163.5C 64.4372,152.939 45.6039,131.605 39,99.5C 37.6635,80.8606 37.1635,62.1939 37.5,43.5 Z"/></g>
<g><path style="opacity:0.962" fill="#0066f4" d="M 124.5,69.5 C 135.485,68.4569 138.985,73.1235 135,83.5C 119.595,98.116 104.095,112.616 88.5,127C 85.0357,127.817 81.7024,127.483 78.5,126C 70.6126,118.113 62.7792,110.279 55,102.5C 52.8333,92.6667 56.6667,88.8333 66.5,91C 72.6499,96.3157 78.6499,101.816 84.5,107.5C 98.1828,95.1493 111.516,82.4826 124.5,69.5 Z"/></g>
</svg>
