<svg width="25" height="24" viewBox="0 0 25 24" fill="none" xmlns="http://www.w3.org/2000/svg">
<g clip-path="url(#clip0_1890_8962)">
<rect x="0.117188" width="24" height="24" rx="4" fill="white"/>
<path d="M21.8111 4.15669C21.8111 4.15669 21.8111 4.16607 21.8111 4.17075L16.3548 22.1651C16.2722 22.4574 16.1022 22.7174 15.8676 22.9103C15.633 23.1032 15.345 23.2197 15.0423 23.2442C14.9992 23.2479 14.9561 23.2498 14.9129 23.2498C14.6292 23.2507 14.3512 23.1704 14.1117 23.0184C13.8721 22.8664 13.6811 22.6491 13.5611 22.392L10.2132 15.3242C10.1802 15.2543 10.1696 15.1758 10.1828 15.0996C10.1961 15.0234 10.2326 14.9532 10.2873 14.8986L15.6554 9.5295C15.7901 9.38771 15.8641 9.19889 15.8616 9.00332C15.8591 8.80775 15.7803 8.6209 15.642 8.4826C15.5037 8.34429 15.3169 8.26549 15.1213 8.26299C14.9257 8.26048 14.7369 8.33448 14.5951 8.46919L9.21855 13.8373C9.16391 13.892 9.09367 13.9285 9.01748 13.9418C8.94128 13.9551 8.86285 13.9444 8.79293 13.9114L1.76168 10.5804C1.48553 10.4539 1.25314 10.2483 1.09393 9.98963C0.934715 9.73095 0.855845 9.43085 0.867304 9.12732C0.882574 8.81535 0.995515 8.51607 1.19016 8.2718C1.38481 8.02752 1.65131 7.85061 1.95199 7.76607L19.9464 2.30982H19.9604C20.2166 2.23784 20.4874 2.23531 20.7449 2.30251C21.0024 2.3697 21.2374 2.50419 21.4257 2.69217C21.6141 2.88016 21.7491 3.11487 21.8168 3.37224C21.8845 3.6296 21.8825 3.90034 21.8111 4.15669Z" fill="#0066F5"/>
</g>
<defs>
<clipPath id="clip0_1890_8962">
<rect x="0.117188" width="24" height="24" rx="4" fill="white"/>
</clipPath>
</defs>
</svg>
