<svg width="24" height="24" viewBox="0 0 24 24" fill="none" xmlns="http://www.w3.org/2000/svg">
<path d="M17.25 14.2499V9.74993C17.25 9.55101 17.329 9.36025 17.4697 9.2196C17.6103 9.07894 17.8011 8.99993 18 8.99993C18.1989 8.99993 18.3897 9.07894 18.5303 9.2196C18.671 9.36025 18.75 9.55101 18.75 9.74993V14.2499C18.75 14.4488 18.671 14.6396 18.5303 14.7803C18.3897 14.9209 18.1989 14.9999 18 14.9999C17.8011 14.9999 17.6103 14.9209 17.4697 14.7803C17.329 14.6396 17.25 14.4488 17.25 14.2499ZM21 7.49993C20.8011 7.49993 20.6103 7.57894 20.4697 7.7196C20.329 7.86025 20.25 8.05101 20.25 8.24993V15.7499C20.25 15.9488 20.329 16.1396 20.4697 16.2803C20.6103 16.4209 20.8011 16.4999 21 16.4999C21.1989 16.4999 21.3897 16.4209 21.5303 16.2803C21.671 16.1396 21.75 15.9488 21.75 15.7499V8.24993C21.75 8.05101 21.671 7.86025 21.5303 7.7196C21.3897 7.57894 21.1989 7.49993 21 7.49993ZM20.055 19.7456C20.1226 19.8182 20.1752 19.9035 20.2096 19.9966C20.244 20.0897 20.2595 20.1887 20.2554 20.2879C20.2513 20.387 20.2275 20.4844 20.1854 20.5743C20.1434 20.6642 20.0839 20.7449 20.0105 20.8116C19.937 20.8784 19.851 20.9299 19.7575 20.9632C19.664 20.9964 19.5649 21.0108 19.4658 21.0055C19.3667 21.0002 19.2696 20.9752 19.1802 20.9321C19.0908 20.889 19.0109 20.8285 18.945 20.7543L15 16.4146V20.9999C14.9999 21.1403 14.9604 21.2778 14.8861 21.3968C14.8117 21.5158 14.7054 21.6116 14.5793 21.6732C14.4533 21.7348 14.3124 21.7598 14.1728 21.7454C14.0332 21.7309 13.9005 21.6776 13.7897 21.5915L7.24219 16.4999H3C2.60218 16.4999 2.22064 16.3419 1.93934 16.0606C1.65804 15.7793 1.5 15.3977 1.5 14.9999V8.99993C1.5 8.6021 1.65804 8.22057 1.93934 7.93927C2.22064 7.65796 2.60218 7.49993 3 7.49993H6.89531L3.945 4.2543C3.87738 4.18166 3.82484 4.09631 3.79044 4.00322C3.75604 3.91012 3.74046 3.81112 3.74461 3.71196C3.74875 3.6128 3.77253 3.51545 3.81458 3.42555C3.85662 3.33564 3.91609 3.25498 3.98954 3.18823C4.06299 3.12148 4.14896 3.06997 4.24246 3.03669C4.33596 3.00341 4.43514 2.98902 4.53424 2.99435C4.63335 2.99969 4.73041 3.02463 4.8198 3.06775C4.90919 3.11087 4.98914 3.17131 5.055 3.24555L20.055 19.7456ZM13.5 14.7646L8.25937 8.99993H3V14.9999H7.5C7.66686 14.9997 7.82897 15.0555 7.96031 15.1584L13.5 19.4662V14.7646ZM10.9744 6.49774L13.5 4.52899V10.0106C13.5 10.2095 13.579 10.4002 13.7197 10.5409C13.8603 10.6815 14.0511 10.7606 14.25 10.7606C14.4489 10.7606 14.6397 10.6815 14.7803 10.5409C14.921 10.4002 15 10.2095 15 10.0106V2.99993C14.9999 2.85959 14.9604 2.72209 14.8861 2.60308C14.8117 2.48406 14.7054 2.38829 14.5793 2.32667C14.4533 2.26504 14.3124 2.24003 14.1728 2.25447C14.0332 2.26891 13.9005 2.32223 13.7897 2.40836L10.0538 5.31461C9.89988 5.43776 9.80066 5.61653 9.77757 5.81226C9.75446 6.00798 9.80933 6.20494 9.93031 6.36052C10.0513 6.51611 10.2286 6.61783 10.424 6.64369C10.6194 6.66954 10.8171 6.61745 10.9744 6.49868V6.49774Z" fill="#111111"/>
</svg>
