<svg width="24" height="24" viewBox="0 0 24 24" fill="none" xmlns="http://www.w3.org/2000/svg">
<path d="M4.34422 11.4692C4.27449 11.5388 4.21917 11.6215 4.18143 11.7126C4.14369 11.8036 4.12426 11.9012 4.12426 11.9998C4.12426 12.0984 4.14369 12.196 4.18143 12.287C4.21917 12.3781 4.27449 12.4608 4.34422 12.5304L12.0364 20.2179C13.0212 21.2025 14.3567 21.7556 15.7492 21.7556C17.1418 21.7555 18.4773 21.2022 19.4619 20.2175C20.4465 19.2327 20.9996 17.8972 20.9995 16.5046C20.9994 15.1121 20.4462 13.7766 19.4614 12.792L10.1558 3.34949C9.45276 2.64571 8.49895 2.25004 7.50418 2.24951C6.50942 2.24898 5.55519 2.64365 4.85141 3.34668C4.14763 4.04971 3.75196 5.00352 3.75143 5.99828C3.75091 6.99305 4.14557 7.94728 4.8486 8.65105L14.1561 18.0936C14.5788 18.5162 15.1521 18.7537 15.7499 18.7537C16.3476 18.7537 16.9209 18.5162 17.3436 18.0936C17.7663 17.6709 18.0038 17.0976 18.0038 16.4998C18.0038 15.902 17.7663 15.3287 17.3436 14.9061L9.53422 6.97293C9.46582 6.89995 9.3835 6.8414 9.29212 6.80071C9.20074 6.76002 9.10215 6.73802 9.00214 6.73601C8.90213 6.734 8.80273 6.75201 8.70979 6.78899C8.61685 6.82596 8.53224 6.88116 8.46095 6.95132C8.38966 7.02149 8.33313 7.10521 8.29468 7.19755C8.25622 7.28989 8.23663 7.38899 8.23705 7.48902C8.23747 7.58904 8.2579 7.68797 8.29713 7.77999C8.33636 7.872 8.3936 7.95524 8.46548 8.0248L16.2758 15.9664C16.3457 16.0357 16.4013 16.1182 16.4394 16.2091C16.4774 16.2999 16.4972 16.3974 16.4976 16.4959C16.498 16.5944 16.479 16.692 16.4416 16.7832C16.4043 16.8743 16.3494 16.9572 16.28 17.0271C16.2106 17.0971 16.1282 17.1527 16.0373 17.1907C15.9465 17.2288 15.849 17.2486 15.7505 17.249C15.652 17.2493 15.5544 17.2303 15.4632 17.193C15.3721 17.1557 15.2892 17.1007 15.2192 17.0314L5.91266 7.59355C5.48997 7.17173 5.25216 6.59928 5.25155 6.00212C5.25093 5.40497 5.48756 4.83202 5.90938 4.40933C6.3312 3.98665 6.90365 3.74884 7.50081 3.74822C8.09797 3.74761 8.67091 3.98423 9.0936 4.40605L18.3974 13.8448C18.7459 14.1928 19.0225 14.606 19.2113 15.0609C19.4001 15.5158 19.4975 16.0034 19.4979 16.4959C19.4983 16.9884 19.4017 17.4762 19.2136 17.9313C19.0255 18.3865 18.7496 18.8002 18.4016 19.1487C18.0536 19.4972 17.6404 19.7738 17.1855 19.9627C16.7306 20.1515 16.243 20.2489 15.7505 20.2493C15.258 20.2497 14.7702 20.1531 14.315 19.965C13.8599 19.7768 13.4462 19.5009 13.0977 19.1529L5.40454 11.4654C5.2634 11.3254 5.07243 11.2471 4.8736 11.2478C4.67478 11.2485 4.48436 11.3281 4.34422 11.4692Z" fill="#111111" fill-opacity="0.6"/>
</svg>
