<svg width="25" height="24" viewBox="0 0 25 24" fill="none" xmlns="http://www.w3.org/2000/svg">
<path d="M12.1172 2.25C10.1888 2.25 8.30376 2.82183 6.70038 3.89317C5.097 4.96451 3.84732 6.48726 3.10937 8.26884C2.37141 10.0504 2.17833 12.0108 2.55454 13.9021C2.93074 15.7934 3.85934 17.5307 5.2229 18.8943C6.58646 20.2579 8.32375 21.1865 10.2151 21.5627C12.1064 21.9389 14.0668 21.7458 15.8484 21.0078C17.6299 20.2699 19.1527 19.0202 20.224 17.4168C21.2954 15.8134 21.8672 13.9284 21.8672 12C21.8645 9.41498 20.8364 6.93661 19.0085 5.10872C17.1806 3.28084 14.7022 2.25273 12.1172 2.25ZM12.1172 20.25C10.4855 20.25 8.89044 19.7661 7.53374 18.8596C6.17703 17.9531 5.11961 16.6646 4.49519 15.1571C3.87076 13.6496 3.70739 11.9908 4.02571 10.3905C4.34404 8.79016 5.12978 7.32015 6.28356 6.16637C7.43734 5.01259 8.90735 4.22685 10.5077 3.90852C12.108 3.59019 13.7668 3.75357 15.2743 4.37799C16.7818 5.00242 18.0703 6.05984 18.9768 7.41655C19.8833 8.77325 20.3672 10.3683 20.3672 12C20.3647 14.1873 19.4947 16.2843 17.9481 17.8309C16.4014 19.3775 14.3045 20.2475 12.1172 20.25ZM7.61719 10.125C7.61719 9.9025 7.68317 9.68499 7.80679 9.49998C7.9304 9.31498 8.10611 9.17078 8.31167 9.08564C8.51724 9.00049 8.74344 8.97821 8.96167 9.02162C9.1799 9.06502 9.38035 9.17217 9.53769 9.3295C9.69502 9.48684 9.80217 9.68729 9.84558 9.90552C9.88898 10.1238 9.8667 10.35 9.78156 10.5555C9.69641 10.7611 9.55221 10.9368 9.36721 11.0604C9.1822 11.184 8.9647 11.25 8.74219 11.25C8.44382 11.25 8.15767 11.1315 7.9467 10.9205C7.73572 10.7095 7.61719 10.4234 7.61719 10.125ZM16.6172 10.125C16.6172 10.3475 16.5512 10.565 16.4276 10.75C16.304 10.935 16.1283 11.0792 15.9227 11.1644C15.7171 11.2495 15.4909 11.2718 15.2727 11.2284C15.0545 11.185 14.854 11.0778 14.6967 10.9205C14.5394 10.7632 14.4322 10.5627 14.3888 10.3445C14.3454 10.1262 14.3677 9.90005 14.4528 9.69448C14.538 9.48891 14.6822 9.31321 14.8672 9.1896C15.0522 9.06598 15.2697 9 15.4922 9C15.7906 9 16.0767 9.11853 16.2877 9.3295C16.4987 9.54048 16.6172 9.82663 16.6172 10.125ZM16.5169 14.625C15.5522 16.2928 13.9481 17.25 12.1172 17.25C10.2863 17.25 8.68313 16.2937 7.71844 14.625C7.66418 14.5396 7.62774 14.4442 7.61132 14.3444C7.59491 14.2446 7.59885 14.1425 7.62291 14.0442C7.64698 13.946 7.69067 13.8536 7.75136 13.7727C7.81204 13.6917 7.88847 13.6239 7.97605 13.5733C8.06362 13.5227 8.16053 13.4903 8.26094 13.4781C8.36135 13.4659 8.4632 13.4742 8.56034 13.5023C8.65749 13.5305 8.74793 13.5781 8.82623 13.6421C8.90452 13.7062 8.96906 13.7854 9.01594 13.875C9.71625 15.0853 10.8169 15.75 12.1172 15.75C13.4175 15.75 14.5181 15.0844 15.2175 13.875C15.317 13.7027 15.4808 13.577 15.673 13.5254C15.8651 13.4739 16.0699 13.5009 16.2422 13.6003C16.4145 13.6998 16.5402 13.8636 16.5918 14.0558C16.6433 14.2479 16.6163 14.4527 16.5169 14.625Z" fill="#111111" fill-opacity="0.6"/>
</svg>
